<svg width="60" height="49" viewBox="0 0 60 49" fill="none" xmlns="http://www.w3.org/2000/svg">
<path d="M23.779 0.831993C9.955 6.464 0.739 18.368 0.739 30.784C0.739 41.152 6.627 48.32 15.587 48.32C22.627 48.32 27.875 42.816 27.875 35.392C27.875 32.064 26.723 29.248 24.803 26.944C18.403 26.688 14.051 23.104 14.051 17.984C14.051 13.12 18.531 7.87199 25.315 4.41599L23.779 0.831993ZM55.011 0.831993C41.187 6.464 31.971 18.368 31.971 30.784C31.971 41.152 37.859 48.32 46.819 48.32C53.859 48.32 59.107 42.816 59.107 35.392C59.107 32.064 57.955 29.248 56.035 26.944C49.635 26.688 45.283 23.104 45.283 17.984C45.283 13.12 49.763 7.87199 56.547 4.41599L55.011 0.831993Z" fill="#EC715F"/>
</svg>
